REM DIRINDEX 1\2,1\3,1\4
REM DIRNAME folder01,folder02,folder03,folder04
TITLE ""
FILE "059 059_TOEFL_3900.mp3" MP3
  TRACK 01 AUDIO
    TITLE "2:cjc151_2543"
    INDEX 01 00:00:00
  TRACK 02 AUDIO
    TITLE "0:"
    INDEX 01 00:01:24
  TRACK 03 AUDIO
    TITLE "3:cjc151_2544"
    INDEX 01 00:03:04
  TRACK 04 AUDIO
    TITLE "0:"
    INDEX 01 00:07:09
  TRACK 05 AUDIO
    TITLE "2:cjc151_2545"
    INDEX 01 00:08:64
  TRACK 06 AUDIO
    TITLE "0:"
    INDEX 01 00:10:02
  TRACK 07 AUDIO
    TITLE "3:cjc151_2546"
    INDEX 01 00:11:52
  TRACK 08 AUDIO
    TITLE "0:"
    INDEX 01 00:15:62
  TRACK 09 AUDIO
    TITLE "2:cjc151_2547"
    INDEX 01 00:17:41
  TRACK 10 AUDIO
    TITLE "0:"
    INDEX 01 00:18:42
  TRACK 11 AUDIO
    TITLE "3:cjc151_2548"
    INDEX 01 00:20:22
  TRACK 12 AUDIO
    TITLE "0:"
    INDEX 01 00:23:61
  TRACK 13 AUDIO
    TITLE "2:cjc151_2549"
    INDEX 01 00:25:41
  TRACK 14 AUDIO
    TITLE "0:"
    INDEX 01 00:26:44
  TRACK 15 AUDIO
    TITLE "3:cjc151_2550"
    INDEX 01 00:28:23
  TRACK 16 AUDIO
    TITLE "0:"
    INDEX 01 00:31:63
  TRACK 17 AUDIO
    TITLE "2:cjc151_2551"
    INDEX 01 00:33:40
  TRACK 18 AUDIO
    TITLE "0:"
    INDEX 01 00:34:51
  TRACK 19 AUDIO
    TITLE "3:cjc151_2552"
    INDEX 01 00:36:31
  TRACK 20 AUDIO
    TITLE "0:"
    INDEX 01 00:40:21
  TRACK 21 AUDIO
    TITLE "2:cjc151_2553"
    INDEX 01 00:41:73
  TRACK 22 AUDIO
    TITLE "0:"
    INDEX 01 00:43:09
  TRACK 23 AUDIO
    TITLE "3:cjc151_2554"
    INDEX 01 00:44:60
  TRACK 24 AUDIO
    TITLE "0:"
    INDEX 01 00:48:69
  TRACK 25 AUDIO
    TITLE "2:cjc151_2555"
    INDEX 01 00:50:50
  TRACK 26 AUDIO
    TITLE "0:"
    INDEX 01 00:51:65
  TRACK 27 AUDIO
    TITLE "3:cjc151_2556"
    INDEX 01 00:53:45
  TRACK 28 AUDIO
    TITLE "0:"
    INDEX 01 00:57:48
  TRACK 29 AUDIO
    TITLE "2:cjc151_2557"
    INDEX 01 00:59:30
  TRACK 30 AUDIO
    TITLE "0:"
    INDEX 01 01:00:25
  TRACK 31 AUDIO
    TITLE "3:cjc151_2558"
    INDEX 01 01:02:05
  TRACK 32 AUDIO
    TITLE "0:"
    INDEX 01 01:05:01
  TRACK 33 AUDIO
    TITLE "2:cjc151_2559"
    INDEX 01 01:06:55
  TRACK 34 AUDIO
    TITLE "0:"
    INDEX 01 01:07:68
  TRACK 35 AUDIO
    TITLE "3:cjc151_2560"
    INDEX 01 01:09:48
  TRACK 36 AUDIO
    TITLE "0:"
    INDEX 01 01:13:34
  TRACK 37 AUDIO
    TITLE "2:cjc151_2561"
    INDEX 01 01:15:13
  TRACK 38 AUDIO
    TITLE "0:"
    INDEX 01 01:16:24
  TRACK 39 AUDIO
    TITLE "3:cjc151_2562"
    INDEX 01 01:18:06
  TRACK 40 AUDIO
    TITLE "0:"
    INDEX 01 01:21:65
  TRACK 41 AUDIO
    TITLE "2:cjc151_2563"
    INDEX 01 01:23:42
  TRACK 42 AUDIO
    TITLE "0:"
    INDEX 01 01:24:39
  TRACK 43 AUDIO
    TITLE "3:cjc151_2564"
    INDEX 01 01:26:21
  TRACK 44 AUDIO
    TITLE "0:"
    INDEX 01 01:30:46
  TRACK 45 AUDIO
    TITLE "2:cjc151_2565"
    INDEX 01 01:32:25
  TRACK 46 AUDIO
    TITLE "0:"
    INDEX 01 01:33:27
  TRACK 47 AUDIO
    TITLE "3:cjc151_2566"
    INDEX 01 01:35:00
  TRACK 48 AUDIO
    TITLE "0:"
    INDEX 01 01:38:65
  TRACK 49 AUDIO
    TITLE "2:cjc151_2567"
    INDEX 01 01:40:42
  TRACK 50 AUDIO
    TITLE "0:"
    INDEX 01 01:41:57
  TRACK 51 AUDIO
    TITLE "3:cjc151_2568"
    INDEX 01 01:43:35
  TRACK 52 AUDIO
    TITLE "0:"
    INDEX 01 01:46:41
  TRACK 53 AUDIO
    TITLE "2:cjc151_2569"
    INDEX 01 01:48:16
  TRACK 54 AUDIO
    TITLE "0:"
    INDEX 01 01:49:10
  TRACK 55 AUDIO
    TITLE "3:cjc151_2570"
    INDEX 01 01:50:64
  TRACK 56 AUDIO
    TITLE "0:"
    INDEX 01 01:54:54
  TRACK 57 AUDIO
    TITLE "2:cjc151_2571"
    INDEX 01 01:56:34
  TRACK 58 AUDIO
    TITLE "0:"
    INDEX 01 01:57:27
  TRACK 59 AUDIO
    TITLE "3:cjc151_2572"
    INDEX 01 01:59:03
  TRACK 60 AUDIO
    TITLE "0:"
    INDEX 01 02:02:09
  TRACK 61 AUDIO
    TITLE "2:cjc151_2573"
    INDEX 01 02:03:69
  TRACK 62 AUDIO
    TITLE "0:"
    INDEX 01 02:05:11
  TRACK 63 AUDIO
    TITLE "3:cjc151_2574"
    INDEX 01 02:06:65
  TRACK 64 AUDIO
    TITLE "0:"
    INDEX 01 02:09:69
  TRACK 65 AUDIO
    TITLE "2:cjc151_2575"
    INDEX 01 02:11:49
  TRACK 66 AUDIO
    TITLE "0:"
    INDEX 01 02:12:56
  TRACK 67 AUDIO
    TITLE "3:cjc151_2576"
    INDEX 01 02:14:33
  TRACK 68 AUDIO
    TITLE "0:"
    INDEX 01 02:18:45
  TRACK 69 AUDIO
    TITLE "2:cjc151_2577"
    INDEX 01 02:20:26
  TRACK 70 AUDIO
    TITLE "0:"
    INDEX 01 02:21:37
  TRACK 71 AUDIO
    TITLE "3:cjc151_2578"
    INDEX 01 02:23:15
  TRACK 72 AUDIO
    TITLE "0:"
    INDEX 01 02:27:73
  TRACK 73 AUDIO
    TITLE "2:cjc151_2579"
    INDEX 01 02:29:51
  TRACK 74 AUDIO
    TITLE "0:"
    INDEX 01 02:30:44
  TRACK 75 AUDIO
    TITLE "3:cjc151_2580"
    INDEX 01 02:32:24
  TRACK 76 AUDIO
    TITLE "0:"
    INDEX 01 02:36:37
  TRACK 77 AUDIO
    TITLE "2:cjc151_2581"
    INDEX 01 02:38:22
  TRACK 78 AUDIO
    TITLE "0:"
    INDEX 01 02:39:39
  TRACK 79 AUDIO
    TITLE "3:cjc151_2582"
    INDEX 01 02:41:11
  TRACK 80 AUDIO
    TITLE "0:"
    INDEX 01 02:45:40
  TRACK 81 AUDIO
    TITLE "2:cjc151_2583"
    INDEX 01 02:47:19
  TRACK 82 AUDIO
    TITLE "0:"
    INDEX 01 02:48:38
  TRACK 83 AUDIO
    TITLE "3:cjc151_2584"
    INDEX 01 02:50:18
  TRACK 84 AUDIO
    TITLE "0:"
    INDEX 01 02:54:43
  TRACK 85 AUDIO
    TITLE "2:cjc151_2585"
    INDEX 01 02:56:22
  TRACK 86 AUDIO
    TITLE "0:"
    INDEX 01 02:57:21
  TRACK 87 AUDIO
    TITLE "3:cjc151_2586"
    INDEX 01 02:58:72
  TRACK 88 AUDIO
    TITLE "0:"
    INDEX 01 03:02:58
